<mxfile host="app.diagrams.net" agent="Mozilla/5.0 (Windows NT 10.0; Win64; x64) AppleWebKit/537.36 (KHTML, like Gecko) Chrome/129.0.0.0 Safari/537.36 Edg/129.0.0.0" version="24.7.16">
  <diagram name="Page-1" id="pRY9gDPAIW1HL_MmCrdl">
    <mxGraphModel dx="1737" dy="885" grid="1" gridSize="10" guides="1" tooltips="1" connect="1" arrows="1" fold="1" page="1" pageScale="1" pageWidth="800" pageHeight="291" math="0" shadow="0">
      <root>
        <mxCell id="0" />
        <mxCell id="1" parent="0" />
        <mxCell id="E-ZCq2n441GcUdhb2rGH-33" style="edgeStyle=orthogonalEdgeStyle;rounded=0;orthogonalLoop=1;jettySize=auto;html=1;entryX=0.5;entryY=0;entryDx=0;entryDy=0;" parent="1" source="E-ZCq2n441GcUdhb2rGH-1" edge="1">
          <mxGeometry relative="1" as="geometry">
            <mxPoint x="300" y="520" as="targetPoint" />
          </mxGeometry>
        </mxCell>
        <mxCell id="E-ZCq2n441GcUdhb2rGH-1" value="&lt;font style=&quot;font-size: 18px;&quot;&gt;User&lt;/font&gt;" style="whiteSpace=wrap;html=1;align=center;fillColor=#fa6800;fontColor=#000000;strokeColor=#C73500;" parent="1" vertex="1">
          <mxGeometry x="250" y="390" width="100" height="40" as="geometry" />
        </mxCell>
        <mxCell id="E-ZCq2n441GcUdhb2rGH-6" value="&lt;font style=&quot;font-size: 18px;&quot;&gt;Trip&lt;/font&gt;" style="whiteSpace=wrap;html=1;align=center;fillColor=#fa6800;fontColor=#000000;strokeColor=#C73500;" parent="1" vertex="1">
          <mxGeometry x="250" y="680" width="100" height="40" as="geometry" />
        </mxCell>
        <mxCell id="E-ZCq2n441GcUdhb2rGH-13" style="edgeStyle=orthogonalEdgeStyle;rounded=0;orthogonalLoop=1;jettySize=auto;html=1;entryX=0;entryY=0.5;entryDx=0;entryDy=0;" parent="1" edge="1">
          <mxGeometry relative="1" as="geometry">
            <mxPoint x="685" y="255" as="sourcePoint" />
            <mxPoint x="895" y="255" as="targetPoint" />
          </mxGeometry>
        </mxCell>
        <mxCell id="E-ZCq2n441GcUdhb2rGH-14" style="edgeStyle=orthogonalEdgeStyle;rounded=0;orthogonalLoop=1;jettySize=auto;html=1;entryX=1;entryY=0.25;entryDx=0;entryDy=0;exitX=0;exitY=0.5;exitDx=0;exitDy=0;" parent="1" source="E-ZCq2n441GcUdhb2rGH-47" target="E-ZCq2n441GcUdhb2rGH-1" edge="1">
          <mxGeometry relative="1" as="geometry">
            <mxPoint x="570" y="330" as="sourcePoint" />
            <mxPoint x="360" y="330" as="targetPoint" />
            <Array as="points">
              <mxPoint x="510" y="255" />
              <mxPoint x="510" y="400" />
            </Array>
          </mxGeometry>
        </mxCell>
        <mxCell id="E-ZCq2n441GcUdhb2rGH-21" style="edgeStyle=orthogonalEdgeStyle;rounded=0;orthogonalLoop=1;jettySize=auto;html=1;entryX=0;entryY=0.75;entryDx=0;entryDy=0;" parent="1" edge="1">
          <mxGeometry relative="1" as="geometry">
            <mxPoint x="676.4285714285713" y="265" as="sourcePoint" />
            <mxPoint x="895" y="265" as="targetPoint" />
            <Array as="points">
              <mxPoint x="735" y="265" />
              <mxPoint x="735" y="265" />
            </Array>
          </mxGeometry>
        </mxCell>
        <mxCell id="E-ZCq2n441GcUdhb2rGH-16" value="1" style="text;html=1;align=center;verticalAlign=middle;resizable=0;points=[];autosize=1;strokeColor=none;fillColor=none;" parent="1" vertex="1">
          <mxGeometry x="590" y="220" width="30" height="30" as="geometry" />
        </mxCell>
        <mxCell id="E-ZCq2n441GcUdhb2rGH-18" value="M" style="text;html=1;align=center;verticalAlign=middle;resizable=0;points=[];autosize=1;strokeColor=none;fillColor=none;" parent="1" vertex="1">
          <mxGeometry x="685" y="220" width="30" height="30" as="geometry" />
        </mxCell>
        <mxCell id="E-ZCq2n441GcUdhb2rGH-25" style="edgeStyle=orthogonalEdgeStyle;rounded=0;orthogonalLoop=1;jettySize=auto;html=1;entryX=0.5;entryY=0;entryDx=0;entryDy=0;" parent="1" target="E-ZCq2n441GcUdhb2rGH-1" edge="1">
          <mxGeometry relative="1" as="geometry">
            <mxPoint x="300" y="330" as="sourcePoint" />
          </mxGeometry>
        </mxCell>
        <mxCell id="E-ZCq2n441GcUdhb2rGH-28" style="edgeStyle=orthogonalEdgeStyle;rounded=0;orthogonalLoop=1;jettySize=auto;html=1;entryX=0.5;entryY=1;entryDx=0;entryDy=0;exitX=0.5;exitY=0;exitDx=0;exitDy=0;" parent="1" source="E-ZCq2n441GcUdhb2rGH-44" target="E-ZCq2n441GcUdhb2rGH-43" edge="1">
          <mxGeometry relative="1" as="geometry">
            <mxPoint x="300.0232558139535" y="260.0271317829457" as="sourcePoint" />
            <mxPoint x="300" y="200" as="targetPoint" />
          </mxGeometry>
        </mxCell>
        <mxCell id="E-ZCq2n441GcUdhb2rGH-30" value="M" style="text;html=1;align=center;verticalAlign=middle;resizable=0;points=[];autosize=1;strokeColor=none;fillColor=none;" parent="1" vertex="1">
          <mxGeometry x="310" y="250" width="30" height="30" as="geometry" />
        </mxCell>
        <mxCell id="E-ZCq2n441GcUdhb2rGH-31" value="1" style="text;html=1;align=center;verticalAlign=middle;resizable=0;points=[];autosize=1;strokeColor=none;fillColor=none;" parent="1" vertex="1">
          <mxGeometry x="310" y="320" width="30" height="30" as="geometry" />
        </mxCell>
        <mxCell id="E-ZCq2n441GcUdhb2rGH-34" style="edgeStyle=orthogonalEdgeStyle;rounded=0;orthogonalLoop=1;jettySize=auto;html=1;entryX=0.5;entryY=0;entryDx=0;entryDy=0;exitX=0.5;exitY=1;exitDx=0;exitDy=0;" parent="1" source="E-ZCq2n441GcUdhb2rGH-48" target="E-ZCq2n441GcUdhb2rGH-6" edge="1">
          <mxGeometry relative="1" as="geometry">
            <mxPoint x="300" y="590" as="sourcePoint" />
          </mxGeometry>
        </mxCell>
        <mxCell id="E-ZCq2n441GcUdhb2rGH-35" style="edgeStyle=orthogonalEdgeStyle;rounded=0;orthogonalLoop=1;jettySize=auto;html=1;entryX=0.6;entryY=0;entryDx=0;entryDy=0;entryPerimeter=0;exitX=0.582;exitY=0.898;exitDx=0;exitDy=0;exitPerimeter=0;" parent="1" source="E-ZCq2n441GcUdhb2rGH-48" target="E-ZCq2n441GcUdhb2rGH-6" edge="1">
          <mxGeometry relative="1" as="geometry">
            <mxPoint x="310" y="578.3333333333333" as="sourcePoint" />
            <Array as="points">
              <mxPoint x="310" y="620" />
            </Array>
          </mxGeometry>
        </mxCell>
        <mxCell id="E-ZCq2n441GcUdhb2rGH-36" value="M" style="text;html=1;align=center;verticalAlign=middle;resizable=0;points=[];autosize=1;strokeColor=none;fillColor=none;" parent="1" vertex="1">
          <mxGeometry x="310" y="580" width="30" height="30" as="geometry" />
        </mxCell>
        <mxCell id="E-ZCq2n441GcUdhb2rGH-37" value="1" style="text;html=1;align=center;verticalAlign=middle;resizable=0;points=[];autosize=1;strokeColor=none;fillColor=none;" parent="1" vertex="1">
          <mxGeometry x="310" y="500" width="30" height="30" as="geometry" />
        </mxCell>
        <mxCell id="E-ZCq2n441GcUdhb2rGH-43" value="Vehicle" style="shape=ext;margin=3;double=1;whiteSpace=wrap;html=1;align=center;fillColor=#fa6800;fontColor=#000000;strokeColor=#000000;strokeWidth=3;" parent="1" vertex="1">
          <mxGeometry x="250" y="170" width="100" height="40" as="geometry" />
        </mxCell>
        <mxCell id="E-ZCq2n441GcUdhb2rGH-44" value="owns" style="shape=rhombus;double=1;perimeter=rhombusPerimeter;whiteSpace=wrap;html=1;align=center;fillColor=#0050ef;strokeColor=#000000;fontColor=#ffffff;strokeWidth=3;" parent="1" vertex="1">
          <mxGeometry x="240" y="270" width="120" height="60" as="geometry" />
        </mxCell>
        <mxCell id="E-ZCq2n441GcUdhb2rGH-46" style="edgeStyle=orthogonalEdgeStyle;rounded=0;orthogonalLoop=1;jettySize=auto;html=1;entryX=0.5;entryY=1;entryDx=0;entryDy=0;exitX=0.583;exitY=0.088;exitDx=0;exitDy=0;exitPerimeter=0;" parent="1" source="E-ZCq2n441GcUdhb2rGH-44" edge="1">
          <mxGeometry relative="1" as="geometry">
            <mxPoint x="309.73" y="270" as="sourcePoint" />
            <mxPoint x="309.73" y="210" as="targetPoint" />
          </mxGeometry>
        </mxCell>
        <mxCell id="E-ZCq2n441GcUdhb2rGH-47" value="makes" style="shape=rhombus;perimeter=rhombusPerimeter;whiteSpace=wrap;html=1;align=center;fillColor=#0050ef;strokeColor=#001DBC;fontColor=#ffffff;" parent="1" vertex="1">
          <mxGeometry x="590" y="225" width="120" height="60" as="geometry" />
        </mxCell>
        <mxCell id="E-ZCq2n441GcUdhb2rGH-48" value="makes" style="shape=rhombus;perimeter=rhombusPerimeter;whiteSpace=wrap;html=1;align=center;fillColor=#0050ef;strokeColor=#001DBC;fontColor=#ffffff;" parent="1" vertex="1">
          <mxGeometry x="240" y="520" width="120" height="60" as="geometry" />
        </mxCell>
        <mxCell id="E-ZCq2n441GcUdhb2rGH-54" value="passenger_id" style="ellipse;whiteSpace=wrap;html=1;align=center;fillColor=#6a00ff;strokeColor=#3700CC;fontColor=#ffffff;" parent="1" vertex="1">
          <mxGeometry x="60" y="730" width="80" height="30" as="geometry" />
        </mxCell>
        <mxCell id="E-ZCq2n441GcUdhb2rGH-55" value="driver_id" style="ellipse;whiteSpace=wrap;html=1;align=center;fillColor=#6a00ff;strokeColor=#3700CC;fontColor=#ffffff;" parent="1" vertex="1">
          <mxGeometry x="60" y="680" width="80" height="30" as="geometry" />
        </mxCell>
        <mxCell id="E-ZCq2n441GcUdhb2rGH-56" value="&lt;u&gt;trip_id&lt;/u&gt;" style="ellipse;whiteSpace=wrap;html=1;align=center;fillColor=#008a00;strokeColor=#005700;fontColor=#ffffff;" parent="1" vertex="1">
          <mxGeometry x="80" y="630" width="80" height="30" as="geometry" />
        </mxCell>
        <mxCell id="E-ZCq2n441GcUdhb2rGH-61" value="" style="endArrow=none;html=1;rounded=0;entryX=0;entryY=0;entryDx=0;entryDy=0;" parent="1" source="E-ZCq2n441GcUdhb2rGH-56" target="E-ZCq2n441GcUdhb2rGH-6" edge="1">
          <mxGeometry width="50" height="50" relative="1" as="geometry">
            <mxPoint x="200" y="740" as="sourcePoint" />
            <mxPoint x="250" y="690" as="targetPoint" />
          </mxGeometry>
        </mxCell>
        <mxCell id="E-ZCq2n441GcUdhb2rGH-62" value="" style="endArrow=none;html=1;rounded=0;exitX=1;exitY=0.5;exitDx=0;exitDy=0;" parent="1" source="E-ZCq2n441GcUdhb2rGH-55" edge="1">
          <mxGeometry width="50" height="50" relative="1" as="geometry">
            <mxPoint x="197" y="710" as="sourcePoint" />
            <mxPoint x="250" y="700" as="targetPoint" />
          </mxGeometry>
        </mxCell>
        <mxCell id="E-ZCq2n441GcUdhb2rGH-63" value="" style="endArrow=none;html=1;rounded=0;exitX=0.657;exitY=-0.008;exitDx=0;exitDy=0;entryX=-0.003;entryY=0.883;entryDx=0;entryDy=0;entryPerimeter=0;exitPerimeter=0;" parent="1" source="E-ZCq2n441GcUdhb2rGH-54" target="E-ZCq2n441GcUdhb2rGH-6" edge="1">
          <mxGeometry width="50" height="50" relative="1" as="geometry">
            <mxPoint x="200" y="775" as="sourcePoint" />
            <mxPoint x="260" y="710" as="targetPoint" />
          </mxGeometry>
        </mxCell>
        <mxCell id="E-ZCq2n441GcUdhb2rGH-64" value="start_time" style="ellipse;whiteSpace=wrap;html=1;align=center;fillColor=#fad9d5;strokeColor=#ae4132;" parent="1" vertex="1">
          <mxGeometry x="90" y="780" width="80" height="30" as="geometry" />
        </mxCell>
        <mxCell id="E-ZCq2n441GcUdhb2rGH-65" value="" style="endArrow=none;html=1;rounded=0;exitX=0.657;exitY=-0.008;exitDx=0;exitDy=0;entryX=0;entryY=1;entryDx=0;entryDy=0;exitPerimeter=0;" parent="1" source="E-ZCq2n441GcUdhb2rGH-64" target="E-ZCq2n441GcUdhb2rGH-6" edge="1">
          <mxGeometry width="50" height="50" relative="1" as="geometry">
            <mxPoint x="280" y="780" as="sourcePoint" />
            <mxPoint x="330" y="720" as="targetPoint" />
          </mxGeometry>
        </mxCell>
        <mxCell id="E-ZCq2n441GcUdhb2rGH-66" value="end_time" style="ellipse;whiteSpace=wrap;html=1;align=center;fillColor=#fad9d5;strokeColor=#ae4132;" parent="1" vertex="1">
          <mxGeometry x="170" y="810" width="80" height="30" as="geometry" />
        </mxCell>
        <mxCell id="E-ZCq2n441GcUdhb2rGH-67" value="" style="endArrow=none;html=1;rounded=0;entryX=0.353;entryY=1.02;entryDx=0;entryDy=0;entryPerimeter=0;exitX=0.531;exitY=0.016;exitDx=0;exitDy=0;exitPerimeter=0;" parent="1" source="E-ZCq2n441GcUdhb2rGH-66" target="E-ZCq2n441GcUdhb2rGH-6" edge="1">
          <mxGeometry width="50" height="50" relative="1" as="geometry">
            <mxPoint x="380" y="810" as="sourcePoint" />
            <mxPoint x="430" y="715" as="targetPoint" />
          </mxGeometry>
        </mxCell>
        <mxCell id="E-ZCq2n441GcUdhb2rGH-71" value="route" style="ellipse;whiteSpace=wrap;html=1;align=center;fillColor=#fad9d5;strokeColor=#ae4132;" parent="1" vertex="1">
          <mxGeometry x="260" y="830" width="80" height="30" as="geometry" />
        </mxCell>
        <mxCell id="E-ZCq2n441GcUdhb2rGH-72" value="" style="endArrow=none;html=1;rounded=0;exitX=0.445;exitY=-0.008;exitDx=0;exitDy=0;entryX=0.5;entryY=1;entryDx=0;entryDy=0;exitPerimeter=0;" parent="1" source="E-ZCq2n441GcUdhb2rGH-71" target="E-ZCq2n441GcUdhb2rGH-6" edge="1">
          <mxGeometry width="50" height="50" relative="1" as="geometry">
            <mxPoint x="450" y="725" as="sourcePoint" />
            <mxPoint x="405" y="670" as="targetPoint" />
          </mxGeometry>
        </mxCell>
        <mxCell id="E-ZCq2n441GcUdhb2rGH-73" value="fare" style="ellipse;whiteSpace=wrap;html=1;align=center;fillColor=#fad9d5;strokeColor=#ae4132;" parent="1" vertex="1">
          <mxGeometry x="350" y="820" width="80" height="30" as="geometry" />
        </mxCell>
        <mxCell id="E-ZCq2n441GcUdhb2rGH-74" value="" style="endArrow=none;html=1;rounded=0;exitX=0.033;exitY=0.314;exitDx=0;exitDy=0;entryX=0.75;entryY=1;entryDx=0;entryDy=0;exitPerimeter=0;" parent="1" source="E-ZCq2n441GcUdhb2rGH-73" target="E-ZCq2n441GcUdhb2rGH-6" edge="1">
          <mxGeometry width="50" height="50" relative="1" as="geometry">
            <mxPoint x="490" y="665" as="sourcePoint" />
            <mxPoint x="390" y="640" as="targetPoint" />
          </mxGeometry>
        </mxCell>
        <mxCell id="E-ZCq2n441GcUdhb2rGH-75" value="&lt;span style=&quot;font-size: 18px;&quot;&gt;Request&lt;/span&gt;" style="whiteSpace=wrap;html=1;align=center;fillColor=#fa6800;fontColor=#000000;strokeColor=#C73500;" parent="1" vertex="1">
          <mxGeometry x="895" y="240" width="100" height="40" as="geometry" />
        </mxCell>
        <mxCell id="E-ZCq2n441GcUdhb2rGH-76" value="req_time" style="ellipse;whiteSpace=wrap;html=1;align=center;fillColor=#fad9d5;strokeColor=#ae4132;" parent="1" vertex="1">
          <mxGeometry x="915" y="345" width="80" height="30" as="geometry" />
        </mxCell>
        <mxCell id="E-ZCq2n441GcUdhb2rGH-77" value="status" style="ellipse;whiteSpace=wrap;html=1;align=center;fillColor=#fad9d5;strokeColor=#ae4132;" parent="1" vertex="1">
          <mxGeometry x="815" y="335" width="80" height="30" as="geometry" />
        </mxCell>
        <mxCell id="E-ZCq2n441GcUdhb2rGH-78" value="&lt;u&gt;request_id&lt;/u&gt;" style="ellipse;whiteSpace=wrap;html=1;align=center;fillColor=#008a00;fontColor=#ffffff;strokeColor=#005700;" parent="1" vertex="1">
          <mxGeometry x="895" y="125" width="80" height="30" as="geometry" />
        </mxCell>
        <mxCell id="E-ZCq2n441GcUdhb2rGH-79" value="" style="endArrow=none;html=1;rounded=0;entryX=0.302;entryY=-0.01;entryDx=0;entryDy=0;entryPerimeter=0;" parent="1" source="E-ZCq2n441GcUdhb2rGH-78" target="E-ZCq2n441GcUdhb2rGH-75" edge="1">
          <mxGeometry width="50" height="50" relative="1" as="geometry">
            <mxPoint x="845" y="300" as="sourcePoint" />
            <mxPoint x="895" y="250" as="targetPoint" />
          </mxGeometry>
        </mxCell>
        <mxCell id="E-ZCq2n441GcUdhb2rGH-80" value="" style="endArrow=none;html=1;rounded=0;exitX=1;exitY=0.5;exitDx=0;exitDy=0;entryX=0.309;entryY=1.013;entryDx=0;entryDy=0;entryPerimeter=0;" parent="1" source="E-ZCq2n441GcUdhb2rGH-77" target="E-ZCq2n441GcUdhb2rGH-75" edge="1">
          <mxGeometry width="50" height="50" relative="1" as="geometry">
            <mxPoint x="842" y="270" as="sourcePoint" />
            <mxPoint x="895" y="260" as="targetPoint" />
            <Array as="points" />
          </mxGeometry>
        </mxCell>
        <mxCell id="E-ZCq2n441GcUdhb2rGH-81" value="" style="endArrow=none;html=1;rounded=0;exitX=0.657;exitY=-0.008;exitDx=0;exitDy=0;entryX=0.5;entryY=1;entryDx=0;entryDy=0;exitPerimeter=0;" parent="1" source="E-ZCq2n441GcUdhb2rGH-76" target="E-ZCq2n441GcUdhb2rGH-75" edge="1">
          <mxGeometry width="50" height="50" relative="1" as="geometry">
            <mxPoint x="845" y="335" as="sourcePoint" />
            <mxPoint x="905" y="270" as="targetPoint" />
          </mxGeometry>
        </mxCell>
        <mxCell id="E-ZCq2n441GcUdhb2rGH-82" value="dropoff_loc" style="ellipse;whiteSpace=wrap;html=1;align=center;fillColor=#fad9d5;strokeColor=#ae4132;" parent="1" vertex="1">
          <mxGeometry x="1045" y="290" width="80" height="30" as="geometry" />
        </mxCell>
        <mxCell id="E-ZCq2n441GcUdhb2rGH-83" value="" style="endArrow=none;html=1;rounded=0;exitX=0.238;exitY=0.092;exitDx=0;exitDy=0;entryX=0.875;entryY=0.993;entryDx=0;entryDy=0;exitPerimeter=0;entryPerimeter=0;" parent="1" source="E-ZCq2n441GcUdhb2rGH-82" target="E-ZCq2n441GcUdhb2rGH-75" edge="1">
          <mxGeometry width="50" height="50" relative="1" as="geometry">
            <mxPoint x="925" y="340" as="sourcePoint" />
            <mxPoint x="975" y="280" as="targetPoint" />
          </mxGeometry>
        </mxCell>
        <mxCell id="E-ZCq2n441GcUdhb2rGH-84" value="pickup_loc" style="ellipse;whiteSpace=wrap;html=1;align=center;fillColor=#fad9d5;strokeColor=#ae4132;" parent="1" vertex="1">
          <mxGeometry x="1055" y="210" width="80" height="30" as="geometry" />
        </mxCell>
        <mxCell id="E-ZCq2n441GcUdhb2rGH-85" value="" style="endArrow=none;html=1;rounded=0;entryX=1.014;entryY=0.39;entryDx=0;entryDy=0;entryPerimeter=0;exitX=0.205;exitY=0.852;exitDx=0;exitDy=0;exitPerimeter=0;" parent="1" source="E-ZCq2n441GcUdhb2rGH-84" target="E-ZCq2n441GcUdhb2rGH-75" edge="1">
          <mxGeometry width="50" height="50" relative="1" as="geometry">
            <mxPoint x="1025" y="370" as="sourcePoint" />
            <mxPoint x="1075" y="275" as="targetPoint" />
          </mxGeometry>
        </mxCell>
        <mxCell id="E-ZCq2n441GcUdhb2rGH-87" value="passenger_id" style="ellipse;whiteSpace=wrap;html=1;align=center;fillColor=#6a00ff;strokeColor=#3700CC;fontColor=#ffffff;" parent="1" vertex="1">
          <mxGeometry x="995" y="130" width="80" height="30" as="geometry" />
        </mxCell>
        <mxCell id="E-ZCq2n441GcUdhb2rGH-88" value="" style="endArrow=none;html=1;rounded=0;exitX=0.033;exitY=0.314;exitDx=0;exitDy=0;entryX=0.653;entryY=0.055;entryDx=0;entryDy=0;exitPerimeter=0;entryPerimeter=0;" parent="1" source="E-ZCq2n441GcUdhb2rGH-87" target="E-ZCq2n441GcUdhb2rGH-75" edge="1">
          <mxGeometry width="50" height="50" relative="1" as="geometry">
            <mxPoint x="1135" y="225" as="sourcePoint" />
            <mxPoint x="1035" y="200" as="targetPoint" />
          </mxGeometry>
        </mxCell>
        <mxCell id="E-ZCq2n441GcUdhb2rGH-90" value="&lt;u&gt;vehicle_id&lt;/u&gt;" style="ellipse;whiteSpace=wrap;html=1;align=center;fillColor=#008a00;strokeColor=#005700;fontColor=#ffffff;" parent="1" vertex="1">
          <mxGeometry x="110" y="220" width="80" height="30" as="geometry" />
        </mxCell>
        <mxCell id="E-ZCq2n441GcUdhb2rGH-91" value="driver_id" style="ellipse;whiteSpace=wrap;html=1;align=center;fillColor=#6a00ff;strokeColor=#3700CC;fontColor=#ffffff;" parent="1" vertex="1">
          <mxGeometry x="90" y="170" width="80" height="30" as="geometry" />
        </mxCell>
        <mxCell id="E-ZCq2n441GcUdhb2rGH-92" value="model" style="ellipse;whiteSpace=wrap;html=1;align=center;fillColor=#fad9d5;strokeColor=#ae4132;" parent="1" vertex="1">
          <mxGeometry x="120" y="100" width="80" height="30" as="geometry" />
        </mxCell>
        <mxCell id="E-ZCq2n441GcUdhb2rGH-93" value="" style="endArrow=none;html=1;rounded=0;" parent="1" source="E-ZCq2n441GcUdhb2rGH-92" edge="1">
          <mxGeometry width="50" height="50" relative="1" as="geometry">
            <mxPoint x="200" y="230" as="sourcePoint" />
            <mxPoint x="250" y="180" as="targetPoint" />
          </mxGeometry>
        </mxCell>
        <mxCell id="E-ZCq2n441GcUdhb2rGH-94" value="" style="endArrow=none;html=1;rounded=0;exitX=1;exitY=0.5;exitDx=0;exitDy=0;" parent="1" source="E-ZCq2n441GcUdhb2rGH-91" edge="1">
          <mxGeometry width="50" height="50" relative="1" as="geometry">
            <mxPoint x="197" y="200" as="sourcePoint" />
            <mxPoint x="250" y="190" as="targetPoint" />
          </mxGeometry>
        </mxCell>
        <mxCell id="E-ZCq2n441GcUdhb2rGH-95" value="" style="endArrow=none;html=1;rounded=0;exitX=0.713;exitY=0.031;exitDx=0;exitDy=0;entryX=-0.003;entryY=0.883;entryDx=0;entryDy=0;entryPerimeter=0;exitPerimeter=0;" parent="1" source="E-ZCq2n441GcUdhb2rGH-90" edge="1">
          <mxGeometry width="50" height="50" relative="1" as="geometry">
            <mxPoint x="200" y="265" as="sourcePoint" />
            <mxPoint x="249.70000000000005" y="205.32000000000005" as="targetPoint" />
          </mxGeometry>
        </mxCell>
        <mxCell id="E-ZCq2n441GcUdhb2rGH-96" value="make" style="ellipse;whiteSpace=wrap;html=1;align=center;fillColor=#fad9d5;strokeColor=#ae4132;" parent="1" vertex="1">
          <mxGeometry x="220" y="90" width="80" height="30" as="geometry" />
        </mxCell>
        <mxCell id="E-ZCq2n441GcUdhb2rGH-97" value="" style="endArrow=none;html=1;rounded=0;entryX=0.457;entryY=-0.013;entryDx=0;entryDy=0;exitX=0.625;exitY=1.025;exitDx=0;exitDy=0;exitPerimeter=0;entryPerimeter=0;" parent="1" source="E-ZCq2n441GcUdhb2rGH-96" target="E-ZCq2n441GcUdhb2rGH-43" edge="1">
          <mxGeometry width="50" height="50" relative="1" as="geometry">
            <mxPoint x="313" y="90" as="sourcePoint" />
            <mxPoint x="300" y="210" as="targetPoint" />
          </mxGeometry>
        </mxCell>
        <mxCell id="E-ZCq2n441GcUdhb2rGH-98" value="capacity" style="ellipse;whiteSpace=wrap;html=1;align=center;fillColor=#fad9d5;strokeColor=#ae4132;" parent="1" vertex="1">
          <mxGeometry x="390" y="130" width="80" height="30" as="geometry" />
        </mxCell>
        <mxCell id="E-ZCq2n441GcUdhb2rGH-99" value="" style="endArrow=none;html=1;rounded=0;entryX=1;entryY=0.75;entryDx=0;entryDy=0;exitX=0;exitY=0.5;exitDx=0;exitDy=0;" parent="1" source="E-ZCq2n441GcUdhb2rGH-98" target="E-ZCq2n441GcUdhb2rGH-43" edge="1">
          <mxGeometry width="50" height="50" relative="1" as="geometry">
            <mxPoint x="380" y="300" as="sourcePoint" />
            <mxPoint x="334.5" y="210.12" as="targetPoint" />
          </mxGeometry>
        </mxCell>
        <mxCell id="E-ZCq2n441GcUdhb2rGH-101" value="year" style="ellipse;whiteSpace=wrap;html=1;align=center;fillColor=#fad9d5;strokeColor=#ae4132;" parent="1" vertex="1">
          <mxGeometry x="320" y="90" width="80" height="30" as="geometry" />
        </mxCell>
        <mxCell id="E-ZCq2n441GcUdhb2rGH-102" value="" style="endArrow=none;html=1;rounded=0;exitX=0.052;exitY=0.74;exitDx=0;exitDy=0;entryX=0.7;entryY=0.001;entryDx=0;entryDy=0;exitPerimeter=0;entryPerimeter=0;" parent="1" source="E-ZCq2n441GcUdhb2rGH-101" target="E-ZCq2n441GcUdhb2rGH-43" edge="1">
          <mxGeometry width="50" height="50" relative="1" as="geometry">
            <mxPoint x="490" y="155" as="sourcePoint" />
            <mxPoint x="350.5000000000002" y="182.96000000000004" as="targetPoint" />
          </mxGeometry>
        </mxCell>
        <mxCell id="E-ZCq2n441GcUdhb2rGH-103" value="color" style="ellipse;whiteSpace=wrap;html=1;align=center;fillColor=#fad9d5;strokeColor=#ae4132;" parent="1" vertex="1">
          <mxGeometry x="420" y="170" width="80" height="30" as="geometry" />
        </mxCell>
        <mxCell id="E-ZCq2n441GcUdhb2rGH-104" value="" style="endArrow=none;html=1;rounded=0;entryX=1;entryY=0.75;entryDx=0;entryDy=0;exitX=0;exitY=0.5;exitDx=0;exitDy=0;" parent="1" source="E-ZCq2n441GcUdhb2rGH-103" target="E-ZCq2n441GcUdhb2rGH-43" edge="1">
          <mxGeometry width="50" height="50" relative="1" as="geometry">
            <mxPoint x="390" y="330" as="sourcePoint" />
            <mxPoint x="360" y="230" as="targetPoint" />
          </mxGeometry>
        </mxCell>
        <mxCell id="E-ZCq2n441GcUdhb2rGH-105" value="plate_num" style="ellipse;whiteSpace=wrap;html=1;align=center;fillColor=#fad9d5;strokeColor=#ae4132;" parent="1" vertex="1">
          <mxGeometry x="410" y="210" width="80" height="30" as="geometry" />
        </mxCell>
        <mxCell id="E-ZCq2n441GcUdhb2rGH-106" value="" style="endArrow=none;html=1;rounded=0;entryX=1;entryY=1;entryDx=0;entryDy=0;exitX=0;exitY=0.5;exitDx=0;exitDy=0;" parent="1" source="E-ZCq2n441GcUdhb2rGH-105" target="E-ZCq2n441GcUdhb2rGH-43" edge="1">
          <mxGeometry width="50" height="50" relative="1" as="geometry">
            <mxPoint x="380" y="370" as="sourcePoint" />
            <mxPoint x="340" y="240" as="targetPoint" />
          </mxGeometry>
        </mxCell>
        <mxCell id="E-ZCq2n441GcUdhb2rGH-127" value="&lt;u&gt;user_id&lt;/u&gt;" style="ellipse;whiteSpace=wrap;html=1;align=center;fillColor=#008a00;fontColor=#ffffff;strokeColor=#005700;" parent="1" vertex="1">
          <mxGeometry x="40" y="300" width="80" height="30" as="geometry" />
        </mxCell>
        <mxCell id="E-ZCq2n441GcUdhb2rGH-128" value="" style="endArrow=none;html=1;rounded=0;entryX=0;entryY=0;entryDx=0;entryDy=0;" parent="1" source="E-ZCq2n441GcUdhb2rGH-127" target="E-ZCq2n441GcUdhb2rGH-1" edge="1">
          <mxGeometry width="50" height="50" relative="1" as="geometry">
            <mxPoint x="-50" y="445" as="sourcePoint" />
            <mxPoint x="30" y="385" as="targetPoint" />
          </mxGeometry>
        </mxCell>
        <mxCell id="E-ZCq2n441GcUdhb2rGH-129" value="name" style="ellipse;whiteSpace=wrap;html=1;align=center;fillColor=#fad9d5;strokeColor=#ae4132;" parent="1" vertex="1">
          <mxGeometry x="50" y="345" width="80" height="30" as="geometry" />
        </mxCell>
        <mxCell id="E-ZCq2n441GcUdhb2rGH-130" value="" style="endArrow=none;html=1;rounded=0;entryX=-0.006;entryY=0.161;entryDx=0;entryDy=0;exitX=0.968;exitY=0.743;exitDx=0;exitDy=0;exitPerimeter=0;entryPerimeter=0;" parent="1" source="E-ZCq2n441GcUdhb2rGH-129" target="E-ZCq2n441GcUdhb2rGH-1" edge="1">
          <mxGeometry width="50" height="50" relative="1" as="geometry">
            <mxPoint x="130" y="515" as="sourcePoint" />
            <mxPoint x="101" y="401" as="targetPoint" />
          </mxGeometry>
        </mxCell>
        <mxCell id="E-ZCq2n441GcUdhb2rGH-131" value="email" style="ellipse;whiteSpace=wrap;html=1;align=center;fillColor=#fad9d5;strokeColor=#ae4132;" parent="1" vertex="1">
          <mxGeometry x="40" y="390" width="80" height="30" as="geometry" />
        </mxCell>
        <mxCell id="E-ZCq2n441GcUdhb2rGH-132" value="" style="endArrow=none;html=1;rounded=0;exitX=0.968;exitY=0.743;exitDx=0;exitDy=0;exitPerimeter=0;" parent="1" source="E-ZCq2n441GcUdhb2rGH-131" target="E-ZCq2n441GcUdhb2rGH-1" edge="1">
          <mxGeometry width="50" height="50" relative="1" as="geometry">
            <mxPoint x="131" y="530" as="sourcePoint" />
            <mxPoint x="250" y="411" as="targetPoint" />
          </mxGeometry>
        </mxCell>
        <mxCell id="E-ZCq2n441GcUdhb2rGH-133" value="phone" style="ellipse;whiteSpace=wrap;html=1;align=center;fillColor=#fad9d5;strokeColor=#ae4132;" parent="1" vertex="1">
          <mxGeometry x="40" y="435" width="80" height="30" as="geometry" />
        </mxCell>
        <mxCell id="E-ZCq2n441GcUdhb2rGH-134" value="" style="endArrow=none;html=1;rounded=0;exitX=1;exitY=0;exitDx=0;exitDy=0;" parent="1" source="E-ZCq2n441GcUdhb2rGH-133" edge="1">
          <mxGeometry width="50" height="50" relative="1" as="geometry">
            <mxPoint x="131" y="545" as="sourcePoint" />
            <mxPoint x="250" y="428" as="targetPoint" />
          </mxGeometry>
        </mxCell>
        <mxCell id="E-ZCq2n441GcUdhb2rGH-135" value="rating" style="ellipse;whiteSpace=wrap;html=1;align=center;fillColor=#fad9d5;strokeColor=#ae4132;" parent="1" vertex="1">
          <mxGeometry x="40" y="480" width="80" height="30" as="geometry" />
        </mxCell>
        <mxCell id="E-ZCq2n441GcUdhb2rGH-136" value="" style="endArrow=none;html=1;rounded=0;exitX=0.789;exitY=0.087;exitDx=0;exitDy=0;exitPerimeter=0;entryX=0;entryY=1;entryDx=0;entryDy=0;" parent="1" source="E-ZCq2n441GcUdhb2rGH-135" target="E-ZCq2n441GcUdhb2rGH-1" edge="1">
          <mxGeometry width="50" height="50" relative="1" as="geometry">
            <mxPoint x="161" y="580" as="sourcePoint" />
            <mxPoint x="280" y="463" as="targetPoint" />
          </mxGeometry>
        </mxCell>
        <mxCell id="E-ZCq2n441GcUdhb2rGH-137" value="pickup_loc" style="ellipse;whiteSpace=wrap;html=1;align=center;fillColor=#fad9d5;strokeColor=#ae4132;" parent="1" vertex="1">
          <mxGeometry x="50" y="520" width="80" height="30" as="geometry" />
        </mxCell>
        <mxCell id="E-ZCq2n441GcUdhb2rGH-138" value="" style="endArrow=none;html=1;rounded=0;exitX=0.789;exitY=0.087;exitDx=0;exitDy=0;exitPerimeter=0;entryX=0.157;entryY=0.993;entryDx=0;entryDy=0;entryPerimeter=0;" parent="1" source="E-ZCq2n441GcUdhb2rGH-137" target="E-ZCq2n441GcUdhb2rGH-1" edge="1">
          <mxGeometry width="50" height="50" relative="1" as="geometry">
            <mxPoint x="171" y="590" as="sourcePoint" />
            <mxPoint x="260" y="440" as="targetPoint" />
          </mxGeometry>
        </mxCell>
        <mxCell id="E-ZCq2n441GcUdhb2rGH-158" style="edgeStyle=orthogonalEdgeStyle;rounded=0;orthogonalLoop=1;jettySize=auto;html=1;entryX=0;entryY=0.5;entryDx=0;entryDy=0;" parent="1" edge="1">
          <mxGeometry relative="1" as="geometry">
            <mxPoint x="685" y="535" as="sourcePoint" />
            <mxPoint x="895" y="535" as="targetPoint" />
          </mxGeometry>
        </mxCell>
        <mxCell id="E-ZCq2n441GcUdhb2rGH-159" style="edgeStyle=orthogonalEdgeStyle;rounded=0;orthogonalLoop=1;jettySize=auto;html=1;exitX=0;exitY=0.5;exitDx=0;exitDy=0;" parent="1" target="E-ZCq2n441GcUdhb2rGH-1" edge="1">
          <mxGeometry relative="1" as="geometry">
            <mxPoint x="590" y="535" as="sourcePoint" />
            <mxPoint x="350" y="430" as="targetPoint" />
            <Array as="points">
              <mxPoint x="510" y="535" />
              <mxPoint x="510" y="420" />
            </Array>
          </mxGeometry>
        </mxCell>
        <mxCell id="E-ZCq2n441GcUdhb2rGH-160" style="edgeStyle=orthogonalEdgeStyle;rounded=0;orthogonalLoop=1;jettySize=auto;html=1;entryX=0;entryY=0.75;entryDx=0;entryDy=0;" parent="1" edge="1">
          <mxGeometry relative="1" as="geometry">
            <mxPoint x="676.4285714285713" y="545" as="sourcePoint" />
            <mxPoint x="895" y="545" as="targetPoint" />
            <Array as="points">
              <mxPoint x="735" y="545" />
              <mxPoint x="735" y="545" />
            </Array>
          </mxGeometry>
        </mxCell>
        <mxCell id="E-ZCq2n441GcUdhb2rGH-161" value="1" style="text;html=1;align=center;verticalAlign=middle;resizable=0;points=[];autosize=1;strokeColor=none;fillColor=none;" parent="1" vertex="1">
          <mxGeometry x="590" y="500" width="30" height="30" as="geometry" />
        </mxCell>
        <mxCell id="E-ZCq2n441GcUdhb2rGH-162" value="M" style="text;html=1;align=center;verticalAlign=middle;resizable=0;points=[];autosize=1;strokeColor=none;fillColor=none;" parent="1" vertex="1">
          <mxGeometry x="685" y="500" width="30" height="30" as="geometry" />
        </mxCell>
        <mxCell id="E-ZCq2n441GcUdhb2rGH-165" value="paypal_id" style="ellipse;whiteSpace=wrap;html=1;align=center;fillColor=#fad9d5;strokeColor=#ae4132;" parent="1" vertex="1">
          <mxGeometry x="1125" y="580" width="80" height="30" as="geometry" />
        </mxCell>
        <mxCell id="E-ZCq2n441GcUdhb2rGH-166" value="expirary_date" style="ellipse;whiteSpace=wrap;html=1;align=center;fillColor=#fad9d5;strokeColor=#ae4132;" parent="1" vertex="1">
          <mxGeometry x="1120" y="630" width="80" height="30" as="geometry" />
        </mxCell>
        <mxCell id="E-ZCq2n441GcUdhb2rGH-167" value="&lt;u&gt;payment_id&lt;/u&gt;" style="ellipse;whiteSpace=wrap;html=1;align=center;fillColor=#008a00;fontColor=#ffffff;strokeColor=#005700;" parent="1" vertex="1">
          <mxGeometry x="895" y="405" width="80" height="30" as="geometry" />
        </mxCell>
        <mxCell id="E-ZCq2n441GcUdhb2rGH-168" value="" style="endArrow=none;html=1;rounded=0;entryX=0.302;entryY=-0.01;entryDx=0;entryDy=0;entryPerimeter=0;" parent="1" source="E-ZCq2n441GcUdhb2rGH-167" edge="1">
          <mxGeometry width="50" height="50" relative="1" as="geometry">
            <mxPoint x="845" y="580" as="sourcePoint" />
            <mxPoint x="938.79" y="519.5999999999999" as="targetPoint" />
          </mxGeometry>
        </mxCell>
        <mxCell id="E-ZCq2n441GcUdhb2rGH-169" value="" style="endArrow=none;html=1;rounded=0;exitX=0.5;exitY=0;exitDx=0;exitDy=0;" parent="1" source="E-ZCq2n441GcUdhb2rGH-166" edge="1">
          <mxGeometry width="50" height="50" relative="1" as="geometry">
            <mxPoint x="842" y="550" as="sourcePoint" />
            <mxPoint x="978.0555555555557" y="560" as="targetPoint" />
            <Array as="points" />
          </mxGeometry>
        </mxCell>
        <mxCell id="E-ZCq2n441GcUdhb2rGH-170" value="" style="endArrow=none;html=1;rounded=0;exitX=0.5;exitY=0;exitDx=0;exitDy=0;entryX=0.75;entryY=1;entryDx=0;entryDy=0;" parent="1" source="E-ZCq2n441GcUdhb2rGH-165" edge="1">
          <mxGeometry width="50" height="50" relative="1" as="geometry">
            <mxPoint x="845" y="615" as="sourcePoint" />
            <mxPoint x="1003.75" y="560" as="targetPoint" />
          </mxGeometry>
        </mxCell>
        <mxCell id="E-ZCq2n441GcUdhb2rGH-171" value="card_num" style="ellipse;whiteSpace=wrap;html=1;align=center;fillColor=#fad9d5;strokeColor=#ae4132;" parent="1" vertex="1">
          <mxGeometry x="1100" y="525" width="80" height="30" as="geometry" />
        </mxCell>
        <mxCell id="E-ZCq2n441GcUdhb2rGH-172" value="" style="endArrow=none;html=1;rounded=0;exitX=0;exitY=0.5;exitDx=0;exitDy=0;entryX=1;entryY=0.75;entryDx=0;entryDy=0;" parent="1" source="E-ZCq2n441GcUdhb2rGH-171" edge="1">
          <mxGeometry width="50" height="50" relative="1" as="geometry">
            <mxPoint x="925" y="620" as="sourcePoint" />
            <mxPoint x="1040" y="550" as="targetPoint" />
          </mxGeometry>
        </mxCell>
        <mxCell id="E-ZCq2n441GcUdhb2rGH-173" value="type" style="ellipse;whiteSpace=wrap;html=1;align=center;fillColor=#fad9d5;strokeColor=#ae4132;" parent="1" vertex="1">
          <mxGeometry x="1070" y="450" width="80" height="30" as="geometry" />
        </mxCell>
        <mxCell id="E-ZCq2n441GcUdhb2rGH-174" value="" style="endArrow=none;html=1;rounded=0;entryX=1;entryY=0;entryDx=0;entryDy=0;exitX=0.205;exitY=0.852;exitDx=0;exitDy=0;exitPerimeter=0;" parent="1" source="E-ZCq2n441GcUdhb2rGH-173" edge="1">
          <mxGeometry width="50" height="50" relative="1" as="geometry">
            <mxPoint x="1025" y="650" as="sourcePoint" />
            <mxPoint x="1040" y="520" as="targetPoint" />
          </mxGeometry>
        </mxCell>
        <mxCell id="E-ZCq2n441GcUdhb2rGH-175" value="user_id" style="ellipse;whiteSpace=wrap;html=1;align=center;fillColor=#6a00ff;strokeColor=#3700CC;fontColor=#ffffff;" parent="1" vertex="1">
          <mxGeometry x="995" y="407" width="80" height="30" as="geometry" />
        </mxCell>
        <mxCell id="E-ZCq2n441GcUdhb2rGH-176" value="" style="endArrow=none;html=1;rounded=0;exitX=0.5;exitY=1;exitDx=0;exitDy=0;entryX=0.653;entryY=0.055;entryDx=0;entryDy=0;entryPerimeter=0;" parent="1" source="E-ZCq2n441GcUdhb2rGH-175" edge="1">
          <mxGeometry width="50" height="50" relative="1" as="geometry">
            <mxPoint x="1135" y="505" as="sourcePoint" />
            <mxPoint x="989.685" y="522.2" as="targetPoint" />
          </mxGeometry>
        </mxCell>
        <mxCell id="E-ZCq2n441GcUdhb2rGH-177" value="balance" style="ellipse;whiteSpace=wrap;html=1;align=center;fillColor=#fad9d5;strokeColor=#ae4132;" parent="1" vertex="1">
          <mxGeometry x="1030" y="650" width="80" height="30" as="geometry" />
        </mxCell>
        <mxCell id="E-ZCq2n441GcUdhb2rGH-178" value="" style="endArrow=none;html=1;rounded=0;exitX=0.5;exitY=0;exitDx=0;exitDy=0;entryX=0.306;entryY=0.97;entryDx=0;entryDy=0;entryPerimeter=0;" parent="1" source="E-ZCq2n441GcUdhb2rGH-177" edge="1">
          <mxGeometry width="50" height="50" relative="1" as="geometry">
            <mxPoint x="852" y="560" as="sourcePoint" />
            <mxPoint x="939.3699999999999" y="558.8" as="targetPoint" />
            <Array as="points" />
          </mxGeometry>
        </mxCell>
        <mxCell id="E-ZCq2n441GcUdhb2rGH-180" value="has" style="shape=rhombus;double=1;perimeter=rhombusPerimeter;whiteSpace=wrap;html=1;align=center;fillColor=#0050ef;strokeColor=#000000;fontColor=#ffffff;strokeWidth=3;" parent="1" vertex="1">
          <mxGeometry x="580" y="505" width="120" height="60" as="geometry" />
        </mxCell>
        <mxCell id="E-ZCq2n441GcUdhb2rGH-181" value="&lt;font style=&quot;font-size: 18px;&quot;&gt;payment_method&lt;/font&gt;" style="shape=ext;margin=3;double=1;whiteSpace=wrap;html=1;align=center;fillColor=#fa6800;fontColor=#000000;strokeColor=#000000;strokeWidth=3;" parent="1" vertex="1">
          <mxGeometry x="885" y="520" width="165" height="40" as="geometry" />
        </mxCell>
        <mxCell id="E-ZCq2n441GcUdhb2rGH-182" value="driver_rate" style="ellipse;whiteSpace=wrap;html=1;align=center;fillColor=#fad9d5;strokeColor=#ae4132;" parent="1" vertex="1">
          <mxGeometry x="410" y="780" width="80" height="30" as="geometry" />
        </mxCell>
        <mxCell id="E-ZCq2n441GcUdhb2rGH-183" value="" style="endArrow=none;html=1;rounded=0;exitX=0.033;exitY=0.314;exitDx=0;exitDy=0;entryX=1;entryY=1;entryDx=0;entryDy=0;exitPerimeter=0;" parent="1" source="E-ZCq2n441GcUdhb2rGH-182" target="E-ZCq2n441GcUdhb2rGH-6" edge="1">
          <mxGeometry width="50" height="50" relative="1" as="geometry">
            <mxPoint x="500" y="675" as="sourcePoint" />
            <mxPoint x="335" y="730" as="targetPoint" />
          </mxGeometry>
        </mxCell>
        <mxCell id="E-ZCq2n441GcUdhb2rGH-184" value="passenger_rate" style="ellipse;whiteSpace=wrap;html=1;align=center;fillColor=#fad9d5;strokeColor=#ae4132;" parent="1" vertex="1">
          <mxGeometry x="450" y="730" width="90" height="30" as="geometry" />
        </mxCell>
        <mxCell id="E-ZCq2n441GcUdhb2rGH-185" value="" style="endArrow=none;html=1;rounded=0;exitX=0.033;exitY=0.314;exitDx=0;exitDy=0;entryX=0.998;entryY=0.609;entryDx=0;entryDy=0;exitPerimeter=0;entryPerimeter=0;" parent="1" source="E-ZCq2n441GcUdhb2rGH-184" target="E-ZCq2n441GcUdhb2rGH-6" edge="1">
          <mxGeometry width="50" height="50" relative="1" as="geometry">
            <mxPoint x="540" y="625" as="sourcePoint" />
            <mxPoint x="390" y="670" as="targetPoint" />
          </mxGeometry>
        </mxCell>
        <mxCell id="E-ZCq2n441GcUdhb2rGH-186" value="tip" style="ellipse;whiteSpace=wrap;html=1;align=center;fillColor=#fad9d5;strokeColor=#ae4132;" parent="1" vertex="1">
          <mxGeometry x="468" y="680" width="80" height="30" as="geometry" />
        </mxCell>
        <mxCell id="E-ZCq2n441GcUdhb2rGH-187" value="" style="endArrow=none;html=1;rounded=0;exitX=0.033;exitY=0.314;exitDx=0;exitDy=0;entryX=1.001;entryY=0.213;entryDx=0;entryDy=0;exitPerimeter=0;entryPerimeter=0;" parent="1" source="E-ZCq2n441GcUdhb2rGH-186" target="E-ZCq2n441GcUdhb2rGH-6" edge="1">
          <mxGeometry width="50" height="50" relative="1" as="geometry">
            <mxPoint x="558" y="575" as="sourcePoint" />
            <mxPoint x="372" y="655" as="targetPoint" />
          </mxGeometry>
        </mxCell>
        <mxCell id="E-ZCq2n441GcUdhb2rGH-190" value="" style="endArrow=none;html=1;rounded=0;entryX=0.123;entryY=1.039;entryDx=0;entryDy=0;entryPerimeter=0;exitX=1;exitY=0;exitDx=0;exitDy=0;" parent="1" source="E-ZCq2n441GcUdhb2rGH-191" target="E-ZCq2n441GcUdhb2rGH-6" edge="1">
          <mxGeometry width="50" height="50" relative="1" as="geometry">
            <mxPoint x="140" y="840" as="sourcePoint" />
            <mxPoint x="260" y="730" as="targetPoint" />
          </mxGeometry>
        </mxCell>
        <mxCell id="E-ZCq2n441GcUdhb2rGH-191" value="duration" style="ellipse;whiteSpace=wrap;html=1;align=center;dashed=1;fillColor=none;" parent="1" vertex="1">
          <mxGeometry x="80" y="833" width="70" height="27" as="geometry" />
        </mxCell>
      </root>
    </mxGraphModel>
  </diagram>
</mxfile>
